<?xml version="1.0" encoding="UTF-8"?>
<svg id="Layer_2" data-name="Layer 2" xmlns="http://www.w3.org/2000/svg" viewBox="0 0 1217 350.53">
  <defs>
    <style>
      .cls-1 {
        fill: #fff;
      }
    </style>
  </defs>
  <g id="Layer_1-2" data-name="Layer 1">
    <g>
      <path class="cls-1" d="M408.15,246.26c0,24.67,15.83,46.08,48.41,46.08,20.02,0,35.84-11.17,43.29-26.07l54.93,24.67c-14.9,30.26-47.48,59.59-104.27,59.59s-107.07-43.76-107.07-107.53c0-85.19,61.45-137.79,122.9-137.79,65.17,0,104.27,41.9,104.27,99.15,0,10.71-1.86,27.47-6.52,41.43l-155.95.46ZM505.44,200.17v-3.26c0-14.9-9.78-35.38-39.57-35.38-27.93,0-43.76,15.83-51.21,38.64h90.77Z"/>
      <path class="cls-1" d="M575.04,343.55l13.03-62.38,122.43-108.93h-95.9l13.03-60.05h189.46l-12.57,58.19-127.55,112.65h105.21l-13.03,60.52h-194.12Z"/>
      <path class="cls-1" d="M813.83,343.55l49.34-231.36h70.76l-49.34,231.36h-70.76ZM917.17,0c21.88,0,36.78,15.36,36.78,35.84,0,27-21.88,44.69-45.62,44.69-21.41,0-36.78-15.36-36.78-35.84,0-25.14,20.02-44.69,45.62-44.69Z"/>
      <path class="cls-1" d="M1217,112.17h-96.39l-55.88,50.14-18.88,88.76,3.06,6.83,29.34,65.77,8.87,19.86h78.64l-64.22-131.27,115.45-100.09Z"/>
      <polygon class="cls-1" points="1062.48 6.53 1024.31 184.81 1003.35 284.44 990.78 343.53 920.03 343.53 991.24 6.53 1062.48 6.53"/>
      <path class="cls-1" d="M316.57,180.46c0,100.92-65.92,163.14-164.53,163.14H0l14.57-68.64h134.71c50.21,0,91.25-29.03,91.25-94.5s-41.04-94.95-91.25-94.95H54.86l14.57-68.64h83.06c98.16,0,164.08,62.67,164.08,163.59Z"/>
    </g>
  </g>
</svg>